<svg xmlns="http://www.w3.org/2000/svg" viewBox="0 0 53 52">
  <path d="M42,52H11A11,11,0,0,1,0,41V11A11,11,0,0,1,11,0H42A11,11,0,0,1,53,11V41A11,11,0,0,1,42,52ZM21.4,15.342c-1.789,0-3.94.64-4.029,3.688-.15,5.113,0,13.271,0,13.353a7.8,7.8,0,0,0,.935,2.137,4.17,4.17,0,0,0,3.507,2.138,7.133,7.133,0,0,0,2.588-.476,73.425,73.425,0,0,0,11.74-6.5c.027-.017,2.291-1.509,2.287-3.77a4.263,4.263,0,0,0-2.287-3.786,88.813,88.813,0,0,0-12.589-6.5A8.9,8.9,0,0,0,21.4,15.342Zm2.077,17.2c-2.077,0-2.731-2.605-2.737-2.632,0-.209-.09-5.152,0-8.225a2.164,2.164,0,0,1,2.482-2.271,5.429,5.429,0,0,1,1.325.172,60.266,60.266,0,0,1,7.36,4.063c.82.549,1.749,1.245,1.845,2.125,0,1.4-1.77,2.558-1.845,2.607a69.151,69.151,0,0,1-7.03,3.83,3.475,3.475,0,0,1-1.4.333Z" fill="#ffffff"/>
</svg>